<?xml version="1.0" encoding="UTF-8"?>
<svg fill="none" viewBox="0 0 34 38" xmlns="http://www.w3.org/2000/svg">
<g clip-path="url(#a)">
<path d="m6.07 20.72v-2.26c6.6836-0.9177 13.424-1.3621 20.17-1.33 0 0.6 0 1.21-0.06 1.82 1.9176-0.851 3.9328-1.4623 6-1.82-1.3175-3.408-3.7182-6.2888-6.8329-8.1991-3.1147-1.9104-6.7707-2.7445-10.406-2.374-3.635 0.37044-7.0476 1.9249-9.7129 4.4243-2.6653 2.4993-4.4356 5.8052-5.0385 9.4089l5.88 0.33z" fill="#FDC305"/>
<path d="m27.24 24.23c-1.16 1.28-1.39 1.2-1.39 3.45v9.18c2.2925-1.514 4.1745-3.5721 5.478-5.9906s1.9878-5.122 1.992-7.8694c-0.0132-1.0409-0.1203-2.0784-0.32-3.1-2.0718 1.2295-4.0033 2.6814-5.76 4.33z" fill="#FDC305"/>
<path d="m6.36 25.72s-3.79-1.44-5.19-1.83c-0.38293-0.1207-0.7739-0.2143-1.17-0.28 0.1084 2.886 0.96559 5.6941 2.4874 8.1486 1.5218 2.4545 3.6559 4.471 6.1926 5.8514l-2.32-11.89z" fill="#FDC305"/>
<path d="m26.29 17.12c0.0407-5.5214-0.428-11.035-1.4-16.47 0 0-0.14-1.29-0.89-0.24-0.5891 1.2481-0.9933 2.5754-1.2 3.94-4.2582-0.27423-8.5325-0.16043-12.77 0.34-0.79-2.69-2.18-3.94-2.85-3.69s-0.72 3.31-0.72 3.31l-0.33 14.1c6.6813-0.904 13.418-1.3351 20.16-1.29z" fill="#F06351"/>
<path d="m12.41 14c0-0.09 1 0.68 1.41 0.92s0.61 0.42 0.61 0.59-0.27 0.34-0.63 0.34-0.91-0.12-1-0.27h1.23c-0.6093-0.4506-1.1543-0.9822-1.62-1.58z" fill="#000"/>
<path d="m19.89 14.11-1.09 1.33c0 0.06-0.17 0.35 0.18 0.3 0.4142-0.0617 0.8223-0.1588 1.22-0.29 0.11 0 0.07-0.19-0.11-0.17s-0.69 0.05-1 0.11l0.84-1.26s0.07-0.13-0.04-0.02z" fill="#000"/>
<path d="m16.75 20.2c0.4635-0.2042 0.8467-0.5557 1.09-1 0.28-0.65 0-0.91-0.44-1-0.6021-0.1098-1.2235 0.0116-1.74 0.34-0.39 0.36-0.34 0.72-0.05 1 0.3513 0.2662 0.7342 0.4879 1.14 0.66z" fill="#000"/>
<path d="m16.35 21.45c-0.1121 0.2285-0.2684 0.4325-0.46 0.6-0.2848 0.2291-0.6349 0.3622-1 0.38-0.5262 0.042-1.0494-0.1111-1.47-0.43-0.1978-0.1192-0.3764-0.2676-0.53-0.44-0.1005-0.1109-0.2231-0.1995-0.36-0.26 0 0 0.75 4.1 2.57 4.75s2.14-0.75 2.2-1.13c0.0601-1.1349-0.2258-2.2612-0.82-3.23-0.02-0.31-0.03-0.11-0.13-0.24z" fill="#F06351"/>
<path d="m14.71 22.59c-0.4647-0.0653-0.9111-0.2249-1.3118-0.4691s-0.7472-0.5678-1.0182-0.9509c-0.0133-0.013-0.0239-0.0286-0.0311-0.0458-0.0072-0.0171-0.0109-0.0356-0.0109-0.0542s0.0037-0.0371 0.0109-0.0542c0.0072-0.0172 0.0178-0.0328 0.0311-0.0458 0.013-0.0133 0.0286-0.0239 0.0458-0.0311 0.0171-0.0072 0.0356-0.0109 0.0542-0.0109s0.0371 0.0037 0.0542 0.0109c0.0172 0.0072 0.0328 0.0178 0.0458 0.0311 0.5048 0.6942 1.263 1.1613 2.11 1.3 0.3317-0.025 0.6526-0.1287 0.9361-0.3026 0.2835-0.174 0.5214-0.413 0.6939-0.6974l0.14-0.19 0.1 0.21s0.37 0.76 1 0.8 1.05-0.41 1.61-1.28c0.013-0.0133 0.0286-0.0239 0.0458-0.0311 0.0171-0.0072 0.0356-0.0109 0.0542-0.0109s0.0371 0.0037 0.0542 0.0109c0.0172 0.0072 0.0328 0.0178 0.0458 0.0311 0.0323 0.0206 0.0555 0.0529 0.0648 0.09 0.0093 0.0372 4e-3 0.0766-0.0148 0.11-0.64 1-1.27 1.44-1.88 1.4-0.232-0.0337-0.4533-0.1196-0.6473-0.2513-0.194-0.1316-0.3556-0.3056-0.4727-0.5087-0.1967 0.2745-0.4524 0.5014-0.7483 0.6641-0.2959 0.1626-0.6246 0.2569-0.9617 0.2759z" fill="#000"/>
<path d="m26.24 18.92c-1.7955 1.6237-3.4888 3.357-5.07 5.19-1.5714 1.8261-3.3462 3.4668-5.29 4.89-0.22-0.53-1.62-1.51-1.62-1.51s-3.13-2.14-5.18-3.82c-1.1059-0.9327-2.1513-1.9347-3.13-3l-2-0.11c2.8902 4.2055 7.1202 7.3076 12 8.8 0.86-0.14 3.27-1.86 5.07-3.26 2.1189-1.8181 4.104-3.7866 5.94-5.89 0.5025-0.589 0.8893-1.2675 1.14-2-1.1 0.39-1.86 0.71-1.86 0.71z" fill="#F06351"/>
</g>
<defs>
<clipPath id="a">
<rect width="33.32" height="37.61" fill="#fff"/>
</clipPath>
</defs>
</svg>
