<?xml version="1.0" encoding="UTF-8"?>
<svg fill="none" viewBox="0 0 101 18" xmlns="http://www.w3.org/2000/svg">
<g clip-path="url(#a)" fill="#111">
<path d="m1.2645 16.538c-0.89494-1.2623-1.3392-2.7758-1.2645-4.3077v-6.3846c-0.10838-1.5484 0.30806-3.0887 1.1854-4.3846 0.86932-1 2.2128-1.4615 4.1886-1.4615 1.9758 0 3.2402 0.46154 4.0305 1.3077 0.85805 1.0717 1.28 2.4137 1.1854 3.7692v1.5385h-3.8725v-1.7692c0.03127-0.52326-0.04946-1.0472-0.23709-1.5385-0.10029-0.19831-0.25925-0.36289-0.45642-0.47256-0.19717-0.10966-0.42354-0.15941-0.65-0.14282-0.55321 0-0.94835 0.15384-1.1064 0.53846-0.17879 0.54656-0.259 1.1191-0.23709 1.6923v8.2307c-0.04174 0.5562 0.06727 1.1132 0.31612 1.6154 0.15805 0.3846 0.5532 0.5385 1.1064 0.5385s0.86933-0.1539 1.0274-0.5385c0.17968-0.5198 0.26004-1.0673 0.23709-1.6154v-1.8461h3.8725v1.5385c0.0804 1.3776-0.3392 2.739-1.1854 3.8461-0.7903 0.9231-2.1338 1.3846-4.0305 1.3846-1.8967-0.0769-3.3192-0.5384-4.1095-1.5384z"/>
<path d="m15.253 0.23077h4.5047l3.3193 17.538h-3.6354l-0.6322-3.6923h-2.608l-0.6322 3.6923h-3.7144l3.3982-17.538zm3.2403 11.538-0.9484-6.8461-0.9483 6.8461h1.8967z"/>
<path d="m25.843 3.1538h-2.687v-2.9231h9.4045v2.8462h-2.687v14.692h-4.0305v-14.615z"/>
<path d="m39.752 0.23077h6.9546v1.8462h-4.5047v5.7692h3.6353v1.7692h-3.6353v6.4615h4.5047v1.7693h-7.0337v-17.615h0.0791z"/>
<path d="m48.761 0.23077h1.7387l5.1369 11.615v-11.615h2.0548v17.538h-1.5806l-5.216-12v12h-2.1338v-17.538z"/>
<path d="m60.063 0.23077h6.9546v1.8462h-4.5047v5.7692h3.6354v1.7692h-3.6354v6.4615h4.5047v1.7693h-6.9546v-17.615z"/>
<path d="m69.072 0.23077h3.6354c1.4301-0.096152 2.8513 0.28358 4.0305 1.0769 0.8693 0.69231 1.2645 1.9231 1.2645 3.5385 0 2.2308-0.7113 3.6154-2.2129 4.0769l2.529 8.7692h-2.4499l-2.3709-8.2308h-1.9758v8.2308h-2.5289v-17.462h0.079zm3.4773 7.5385c0.8147 0.06535 1.6268-0.15271 2.2919-0.61538 0.4742-0.38462 0.7112-1.1538 0.7112-2.3077 0.0219-0.5732-0.0583-1.1458-0.237-1.6923-0.1779-0.39219-0.4834-0.71655-0.8694-0.92308-0.5443-0.24143-1.1418-0.34717-1.7386-0.30769h-1.1064v5.7692h0.9483v0.07692z"/>
<path d="m81.164 16.462c-0.8215-1.3449-1.2071-2.8998-1.1064-4.4615v-5.8462c-0.0195-1.1147 0.1134-2.227 0.3951-3.3077 0.2645-0.80752 0.7915-1.5095 1.5016-2 0.8824-0.5084 1.9004-0.74942 2.9241-0.69231 1.6596 0 2.8451 0.38462 3.5564 1.2308 0.8181 1.1173 1.2095 2.4778 1.1064 3.8462v0.61538h-2.3709v-0.53846c0.0036-0.64423-0.0493-1.2876-0.1581-1.9231-0.0666-0.40158-0.2939-0.76113-0.6322-1-0.4442-0.28379-0.9714-0.41882-1.5016-0.38461-0.5666-0.03534-1.1275 0.12843-1.5806 0.46154-0.1859 0.15247-0.3378 0.34027-0.4465 0.5519-0.1088 0.21163-0.1719 0.44264-0.1857 0.67887-0.1042 0.68768-0.157 1.3818-0.1581 2.0769v6.5385c-0.0582 0.9961 0.1035 1.9929 0.4742 2.9231 0.3161 0.6154 0.9484 0.8461 1.8967 0.8461 0.3745 0.0454 0.7543-0.018 1.0918-0.1822 0.3375-0.1643 0.6176-0.422 0.8049-0.7409 0.4176-0.9727 0.6066-2.0239 0.5532-3.0769v-1.2307h-2.2918v-1.7693h4.5837v8.6923h-1.5806l-0.2371-2c-0.2072 0.6703-0.6386 1.2539-1.2257 1.6581s-1.2962 0.6058-2.0145 0.5727c-0.653 0.0374-1.3053-0.0836-1.8985-0.3521-0.5931-0.2685-1.1084-0.6762-1.4998-1.1864z"/>
<path d="m94.678 11.615-3.8724-11.308h2.3709l2.766 8.4615 2.687-8.4615h2.3709l-3.8725 11.308v6.1538h-2.3709v-6.1538h-0.079z"/>
</g>
<defs>
<clipPath id="a">
<rect width="101" height="18" fill="#fff"/>
</clipPath>
</defs>
</svg>
